<?xml version="1.0" encoding="UTF-8"?>
<svg id="Layer_1" data-name="Layer 1" xmlns="http://www.w3.org/2000/svg" viewBox="0 0 841.89 595.28">
  <defs>
    <style>
      .cls-1 {
        fill: #231f20;
      }
    </style>
  </defs>
  <path d="M424.82,509.69c-32.31,0-62.78-12.67-85.79-35.68-23.01-23.01-35.68-53.48-35.68-85.79v-178.83c0-32.31,12.67-62.78,35.68-85.79,23.01-23.01,53.48-35.68,85.79-35.68s62.78,12.67,85.79,35.68c23.01,23.01,35.68,53.48,35.68,85.79v178.83c0,32.31-12.67,62.78-35.68,85.79-23.01,23.01-53.48,35.68-85.79,35.68ZM424.82,89.22c-31.96,0-62.1,12.54-84.87,35.3-22.76,22.76-35.3,52.9-35.3,84.87v178.83c0,31.96,12.54,62.1,35.3,84.87,22.76,22.76,52.9,35.3,84.87,35.3h0c31.96,0,62.1-12.54,84.87-35.3,22.76-22.76,35.3-52.9,35.3-84.87v-178.83c0-31.96-12.54-62.1-35.3-84.87-22.76-22.76-52.9-35.3-84.87-35.3Z"/>
  <g>
    <g>
      <g>
        <path d="M384.31,143.06c-15,0-24.46,9.11-26.24,10.89-6.72,6.72-10.89,16.01-10.89,26.24v104.77h10.6v-104.77c0-14.63,11.9-26.53,26.53-26.53s26.53,11.9,26.53,26.53v104.77c1.4-.95,3.21-2.01,5.45-2.92,1.99-.81,3.82-1.3,5.35-1.61-.07-33.41-.13-66.82-.2-100.23,0-2.47-.26-15.7-10.96-26.33-1.77-1.76-11.22-10.8-26.17-10.8Z"/>
        <circle cx="384.31" cy="215.37" r="11.35"/>
      </g>
      <g>
        <path d="M501.67,146.79v1.27c0,20.48-16.65,37.13-37.13,37.13s-37.13-16.65-37.13-37.13v-1.27h10.6v1.27c0,14.63,11.9,26.53,26.53,26.53s26.53-11.9,26.53-26.53v-1.27h10.6Z"/>
        <g>
          <path d="M436.89,280.65c-1.2-.35-2.62-.67-4.24-.87-2.24-.27-4.22-.2-5.79-.03-.19-44.32-.38-88.64-.57-132.96h10.6v133.86Z"/>
          <rect x="492.18" y="146.79" width="10.6" height="138.16"/>
        </g>
      </g>
    </g>
    <path d="M428.19,445.66c-8.92,0-15.98-1.25-19.54-2.04-24.17-5.35-40.15-20.39-45.4-25.33-5.45-5.13-10.39-10.88-14.66-17.08l-7.51-10.9,13.02,2.38c8.39,1.53,16.75.31,23.92-3.08-8.47-13.66-11.2-30.44-8.85-44.48,1.16-6.91,3.58-13.54,7.12-19.68-10.28-3.43-22.05-1.79-31.34,4.97l-6.47-8.89c13.13-9.55,30.08-11.32,44.35-5.36,3.86-4.56,8.43-8.72,13.63-12.35,14.03-9.8,31.5-14.74,47.91-13.59,13.67.97,26.85,6.15,38.1,15,10.16,7.98,18.48,18.85,23.43,30.6,7.01,16.64,7.39,35.08,1.09,53.32-5.71,16.54-16.38,31.18-30.02,41.22-16.7,12.29-34.97,15.28-48.78,15.28ZM364.88,404.2c1.88,2.12,3.85,4.15,5.91,6.09,4.71,4.43,19.03,17.9,40.24,22.6,7.93,1.76,35.66,6.13,59.43-11.36,22.07-16.24,38.44-50.29,25.32-81.42-4.24-10.06-11.38-19.37-20.09-26.23-9.52-7.48-20.61-11.86-32.08-12.67-13.95-.99-28.84,3.25-40.84,11.63-3.84,2.68-7.26,5.68-10.22,8.94.14.11.28.21.42.32,8.07,6.33,13.47,15.13,15.62,25.44,1.95,9.35,1.03,19.29-2.6,27.98-2.71,6.49-6.86,12.11-12,16.62,2.78,2.76,6.13,5.32,10.15,7.39,14.78,7.62,37.85,7.59,49.35-5.75.48-.56,11.78-13.87,5.85-25.14-3.36-6.38-11.34-10.43-20.32-10.28l-.32-10.99,30.08-1.32c-.02-2.87-.04-5.17-.05-6.92,0-1.37-.01-2.4-.01-3.09,0-1.61,0-3.28,1.59-4.9l1.58-1.61,2.26-.03s.05,0,.07,0c2.6,0,5.39,1.93,5.51,5.56,0,.18.01.44.02.79.01.65.03,1.64.05,2.95.04,2.59.1,6.49.17,11.68.14,10.31.35,26.01.61,46.65l-10.99.14c-.04-3.18-.08-6.2-.12-9.07-.09.22-.18.44-.27.66-2.76,6.58-6.64,11.26-7.39,12.13-6.94,8.05-17.54,13.17-29.85,14.41-11.21,1.13-23.19-1.08-32.87-6.07-5.54-2.86-10.3-6.55-14.29-10.83-6.06,3.22-12.86,5.21-19.93,5.71ZM386.01,330.63c-3,5.1-5.03,10.59-5.99,16.31-1.6,9.58-.25,20.43,3.7,29.78.88,2.09,2.02,4.41,3.47,6.78,3.69-3.36,6.67-7.48,8.65-12.21,2.78-6.67,3.49-14.3,1.98-21.5-1.62-7.74-5.65-14.33-11.65-19.04-.05-.04-.11-.08-.16-.13ZM464.52,357.25c1.8,1.87,3.34,3.97,4.55,6.28.03.06.06.11.09.17-.03-2.4-.06-4.61-.09-6.65l-4.55.2Z"/>
  </g>
  <g>
    <g>
      <g>
        <path class="cls-1" d="M372.14,476.44l8.08-14.51c1.68-3.02,4.65-4,7.41-2.46,2.77,1.54,3.49,4.58,1.81,7.6l-8.08,14.51c-.09.17-.27.22-.43.12l-1.12-.62c-.17-.09-.22-.27-.12-.44l3.8-6.82-5.87-3.27-3.8,6.82c-.09.17-.27.22-.44.12l-1.12-.62c-.17-.09-.22-.27-.12-.44ZM384.36,472.25l3.41-6.12c1.21-2.18.87-4.06-1-5.1s-3.65-.35-4.87,1.83l-3.41,6.12,5.87,3.27Z"/>
        <path d="M381.1,482.24c-.14,0-.28-.04-.41-.11l-1.12-.62c-.2-.11-.34-.29-.4-.49-.06-.21-.03-.43.08-.62l3.55-6.38-5-2.78-3.55,6.38c-.11.2-.28.34-.49.4-.21.06-.43.03-.63-.08l-1.12-.62c-.41-.23-.54-.7-.32-1.11h0s8.08-14.51,8.08-14.51c1.82-3.27,5.08-4.34,8.09-2.66,1.48.83,2.46,2.06,2.82,3.57.35,1.49.07,3.12-.81,4.71l-8.08,14.51c-.11.2-.28.34-.49.4-.07.02-.14.03-.22.03ZM380.93,481.33h0s0,0,0,0ZM380.21,480.72l.8.45,7.99-14.35c.76-1.37,1.01-2.75.71-4-.29-1.23-1.1-2.24-2.33-2.92-2.53-1.41-5.18-.52-6.73,2.27l-7.99,14.35.8.45,3.95-7.1,6.74,3.75-3.95,7.1ZM384.55,472.93l-6.74-3.75,3.65-6.56c.66-1.19,1.49-1.99,2.44-2.35.98-.38,2.05-.26,3.1.32s1.71,1.44,1.91,2.46c.2,1.01-.04,2.12-.71,3.32l-3.65,6.56ZM379.17,468.79l5,2.78,3.17-5.69c.54-.97.75-1.88.6-2.64-.14-.74-.62-1.34-1.41-1.78-.79-.44-1.55-.53-2.26-.26-.72.27-1.39.93-1.93,1.9l-3.17,5.69Z"/>
      </g>
      <g>
        <path class="cls-1" d="M415.01,474.93l-3.8,16.13c-.04.19-.2.28-.38.24l-1.25-.29c-.19-.04-.28-.2-.24-.38l3.8-16.13c.6-2.52-.1-4.17-2.03-4.62-1.78-.42-3.29.7-3.88,3.23l-3.8,16.13c-.04.19-.2.28-.38.24l-1.25-.29c-.19-.04-.28-.2-.24-.38l3.8-16.13c.59-2.52-.32-4.22-2.04-4.62-1.96-.46-3.29.71-3.88,3.23l-3.8,16.13c-.04.19-.2.28-.38.24l-1.25-.29c-.19-.04-.28-.2-.24-.38l3.8-16.13c.82-3.49,3.11-5.25,6.16-4.53,2.09.49,2.82,1.85,3.28,3.53,1.16-1.3,2.49-2.18,4.51-1.7,3.02.71,4.31,3.32,3.49,6.81Z"/>
        <path d="M410.91,491.82c-.07,0-.13,0-.2-.02l-1.25-.29c-.22-.05-.4-.18-.52-.36-.11-.18-.14-.4-.09-.62l3.8-16.13c.27-1.15.26-2.09-.04-2.77-.28-.65-.81-1.06-1.62-1.25-.74-.17-1.4-.04-1.96.41-.61.49-1.06,1.33-1.33,2.44l-3.8,16.13c-.11.46-.53.72-.99.61l-1.25-.29c-.45-.11-.71-.53-.61-.98l3.8-16.13c.5-2.12-.14-3.66-1.66-4.02-1.64-.38-2.74.58-3.28,2.86l-3.8,16.13c-.11.46-.54.72-.99.61l-1.25-.29c-.22-.05-.4-.18-.52-.36-.11-.18-.14-.4-.09-.62l3.8-16.13c.43-1.84,1.27-3.27,2.43-4.13,1.2-.89,2.7-1.16,4.33-.77,2.02.48,2.9,1.74,3.39,3.07,1-.94,2.38-1.71,4.4-1.23,1.62.38,2.84,1.29,3.52,2.62.66,1.29.78,2.95.35,4.78l-3.8,16.13c-.05.22-.18.4-.36.52-.13.08-.27.12-.42.12ZM410.72,490.95h0s0,0,0,0ZM409.87,490.57l.89.21,3.76-15.96c.38-1.6.29-3.02-.26-4.1-.54-1.06-1.53-1.79-2.86-2.1-1.56-.37-2.72.08-4.02,1.55l-.61.69-.24-.89c-.45-1.64-1.09-2.75-2.91-3.18-1.36-.32-2.54-.12-3.51.6-.97.72-1.68,1.95-2.06,3.56l-3.76,15.96.9.21,3.76-15.96c.91-3.84,3.2-3.9,4.48-3.6,2.09.49,3.04,2.54,2.41,5.22l-3.76,15.96.9.21,3.76-15.96c.31-1.33.89-2.36,1.67-2.99.8-.64,1.77-.85,2.81-.61,1.1.26,1.9.89,2.31,1.82.39.89.42,2.03.1,3.4l-3.76,15.96ZM409.82,490.74h0,0ZM394.25,487.07h0,0Z"/>
      </g>
      <g>
        <path class="cls-1" d="M424.86,491.71l-.93-16.61c-.19-3.36,1.82-5.87,4.92-6.04,3.1-.17,5.37,2.1,5.56,5.46l.13,2.36c.15,2.65-1.12,4.58-2.93,5.45l4.17,8.71c.11.22,0,.38-.23.4l-1.41.08c-.16,0-.29-.05-.37-.24l-3.94-8.47-3.54.2.48,8.6c.01.19-.11.33-.3.34l-1.28.07c-.19.01-.33-.11-.34-.3ZM429.49,481.04c2.01-.11,3.27-1.79,3.14-4.05l-.13-2.36c-.13-2.36-1.56-3.89-3.54-3.78-1.98.11-3.23,1.78-3.1,4.15l.35,6.23,3.29-.18Z"/>
        <path d="M425.18,492.51c-.21,0-.4-.07-.55-.2-.16-.14-.25-.35-.26-.57l-.93-16.61c-.1-1.75.38-3.37,1.34-4.56.98-1.21,2.42-1.92,4.05-2.01,1.64-.09,3.15.46,4.25,1.55,1.09,1.07,1.74,2.63,1.84,4.38l.13,2.36c.14,2.49-.89,4.58-2.77,5.7l3.97,8.28c.12.25.12.52,0,.74-.13.22-.37.36-.65.37l-1.41.08c-.38.02-.71-.18-.86-.55l-3.78-8.13-2.71.15.45,8.1c.01.22-.06.44-.2.59-.14.16-.35.26-.57.27l-1.28.07s-.03,0-.05,0ZM426.28,491.64h0s0,0,0,0ZM429.19,469.54c-.1,0-.2,0-.31,0-1.37.08-2.52.65-3.33,1.64-.8.99-1.2,2.37-1.12,3.87l.92,16.44.92-.05-.5-8.92,4.38-.24,4.05,8.71.98-.05-4.24-8.86.45-.22c1.79-.86,2.78-2.72,2.65-4.97l-.13-2.36c-.08-1.5-.63-2.83-1.54-3.72-.85-.83-1.94-1.27-3.19-1.27ZM435.34,491.26s0,0,0,0h0ZM425.73,481.75l-.38-6.73c-.15-2.63,1.32-4.55,3.57-4.67,1.11-.07,2.12.33,2.86,1.12.72.77,1.14,1.85,1.21,3.13l.13,2.36c.14,2.57-1.34,4.46-3.61,4.58l-3.79.21ZM429.15,471.34c-.06,0-.12,0-.17,0-1.69.09-2.75,1.55-2.63,3.62l.32,5.73,2.79-.16c1.71-.1,2.78-1.51,2.67-3.53l-.13-2.36c-.06-1.04-.39-1.91-.95-2.5-.5-.53-1.15-.81-1.9-.81Z"/>
      </g>
      <g>
        <path class="cls-1" d="M447.7,488.9l-4.81-15.89c-1-3.31.35-6.12,3.38-7.04,3.03-.92,5.72.67,6.72,3.98l4.82,15.89c.05.18-.03.34-.21.4l-1.22.37c-.18.06-.34-.03-.4-.21l-2.26-7.47-6.43,1.95,2.26,7.47c.06.18-.03.34-.21.4l-1.22.37c-.18.06-.34-.03-.4-.21ZM453.19,477.21l-2.03-6.71c-.72-2.39-2.31-3.45-4.37-2.82-2.05.62-2.79,2.38-2.06,4.77l2.03,6.71,6.43-1.95Z"/>
        <path d="M448,489.63c-.35,0-.66-.22-.77-.58h0s-4.81-15.9-4.81-15.9c-.53-1.74-.46-3.4.21-4.78.67-1.4,1.88-2.4,3.51-2.89,1.63-.49,3.19-.34,4.52.45,1.32.78,2.29,2.12,2.82,3.86l4.82,15.89c.13.45-.1.89-.55,1.02l-1.23.37c-.22.07-.44.05-.63-.06-.19-.1-.33-.28-.39-.5l-2.12-6.99-5.47,1.66,2.12,6.99c.07.21.05.44-.05.63-.1.19-.28.33-.49.4l-1.23.37c-.08.03-.17.04-.25.04ZM447.94,466.2c-.49,0-1.01.08-1.53.24-1.35.41-2.35,1.23-2.9,2.36-.55,1.15-.61,2.55-.15,4.06l4.76,15.72.88-.27-2.36-7.78,7.39-2.24,2.36,7.78.88-.27-4.76-15.72c-.46-1.5-1.28-2.64-2.38-3.29-.67-.39-1.41-.59-2.2-.59ZM456.45,486.25h0ZM446.42,479.78l-2.18-7.19c-.4-1.31-.39-2.45.01-3.39.41-.96,1.24-1.66,2.39-2,2.31-.7,4.18.48,4.99,3.16l2.18,7.19-7.39,2.24ZM447.9,468c-.29,0-.62.05-.97.15-.87.26-1.46.75-1.76,1.44-.3.71-.29,1.64.03,2.71l1.89,6.23,5.47-1.66-1.89-6.23c-.32-1.06-1.08-2.64-2.78-2.64Z"/>
      </g>
      <g>
        <path class="cls-1" d="M464.44,477.24c-.09-.17-.04-.34.13-.43l1.12-.62c.17-.09.33-.07.44.13,1.31,2.2,3.15,3.16,4.98,2.16,1.85-1.02,2.09-2.97.88-5.19l-7.92-14.45c-.09-.17-.04-.34.13-.43l1.12-.62c.17-.09.34-.04.43.13l7.92,14.45c1.69,3.09,1.25,6.07-1.73,7.7-2.75,1.51-5.66.26-7.5-2.82Z"/>
        <path d="M469.55,481.21c-2.08,0-4.1-1.3-5.53-3.71v-.02c-.12-.2-.14-.42-.08-.63.06-.21.2-.38.4-.48l1.12-.61c.26-.14.49-.12.63-.08.14.04.34.15.48.41.58.96,2.17,3.12,4.3,1.96,2.19-1.2,1.21-3.55.68-4.51l-7.92-14.45c-.22-.41-.08-.89.33-1.11l1.12-.62c.2-.11.42-.14.63-.08.21.06.38.2.49.4l7.92,14.45c1.9,3.47,1.16,6.68-1.93,8.38-.87.47-1.75.7-2.63.7ZM464.98,477.15c1.76,2.84,4.32,3.79,6.72,2.47,2.59-1.42,3.16-4.04,1.53-7.02l-7.83-14.29-.81.44,7.83,14.29c1.39,2.54.99,4.73-1.08,5.87-1.93,1.06-4.06.22-5.56-2.21l-.81.44ZM464.81,477.24h0s0,0,0,0ZM465.56,458.23h0,0Z"/>
      </g>
    </g>
    <g>
      <circle class="cls-1" cx="365.35" cy="460.96" r="4.03"/>
      <path d="M365.35,465.49c-2.5,0-4.53-2.03-4.53-4.53s2.03-4.53,4.53-4.53,4.53,2.03,4.53,4.53-2.03,4.53-4.53,4.53ZM365.35,457.43c-1.95,0-3.53,1.58-3.53,3.53s1.58,3.53,3.53,3.53,3.53-1.58,3.53-3.53-1.58-3.53-3.53-3.53Z"/>
    </g>
    <g>
      <circle class="cls-1" cx="482.16" cy="460.96" r="4.03"/>
      <path d="M482.16,465.49s-.08,0-.12,0c-2.5-.07-4.47-2.15-4.41-4.64.07-2.5,2.16-4.49,4.65-4.41,2.5.07,4.47,2.15,4.41,4.64h0c-.03,1.21-.53,2.33-1.41,3.17-.85.8-1.95,1.24-3.11,1.24ZM482.16,457.43c-1.9,0-3.48,1.52-3.53,3.43-.05,1.94,1.49,3.57,3.43,3.62.97.03,1.84-.32,2.52-.97s1.07-1.52,1.1-2.47h0c.05-1.94-1.49-3.57-3.43-3.62-.03,0-.06,0-.09,0Z"/>
    </g>
  </g>
</svg>